<svg width="144" height="144" viewBox="0 0 144 144" fill="none" xmlns="http://www.w3.org/2000/svg">
<rect width="144" height="144" fill="white"/>
<path d="M37.543 31C59.905 31 67.9083 42.5699 68.7321 51.7808H56.7273C56.2565 45.4904 50.7248 39.874 37.543 39.874C23.0666 39.874 17.1818 45.6027 17.1818 52.3425C17.1818 60.6548 23.7727 64.2493 34.2476 65.7096L43.6631 67.0575C59.5519 69.4164 70.4976 74.8082 70.4976 89.6356C70.4976 103.115 58.9635 113 37.543 113C15.4164 113 4.58847 102.89 4 90.5342H15.7695C16.2403 99.1836 23.655 104.126 37.543 104.126C51.3133 104.126 58.8458 98.6219 58.8458 90.5342C58.8458 81.4356 51.9018 79.526 41.3092 77.8411L31.8937 76.3808C15.7695 74.0219 5.76542 67.0575 5.76542 53.1288C5.76542 41.1096 16.0049 31 37.543 31Z" fill="black"/>
<path d="M87.0373 111.315H75.2679V32.6849H87.0373V67.5068L122.934 32.6849H137.646L97.6299 70.8767L140 111.315H124.111L87.0373 74.8082V111.315Z" fill="black"/>
</svg>
